<!-- <svg xmlns="http://www.w3.org/2000/svg" x="0px" y="0px" width="100" height="100" viewBox="0 0 48 48">
<path fill="#252f3e" d="M13.527,21.529c0,0.597,0.064,1.08,0.176,1.435c0.128,0.355,0.287,0.742,0.511,1.161 c0.08,0.129,0.112,0.258,0.112,0.371c0,0.161-0.096,0.322-0.303,0.484l-1.006,0.677c-0.144,0.097-0.287,0.145-0.415,0.145 c-0.16,0-0.319-0.081-0.479-0.226c-0.224-0.242-0.415-0.5-0.575-0.758c-0.16-0.274-0.319-0.58-0.495-0.951 c-1.245,1.483-2.81,2.225-4.694,2.225c-1.341,0-2.411-0.387-3.193-1.161s-1.181-1.806-1.181-3.096c0-1.37,0.479-2.483,1.453-3.321 s2.267-1.258,3.911-1.258c0.543,0,1.102,0.048,1.692,0.129s1.197,0.21,1.836,0.355v-1.177c0-1.225-0.255-2.08-0.75-2.58 c-0.511-0.5-1.373-0.742-2.602-0.742c-0.559,0-1.133,0.064-1.724,0.21c-0.591,0.145-1.165,0.322-1.724,0.548 c-0.255,0.113-0.447,0.177-0.559,0.21c-0.112,0.032-0.192,0.048-0.255,0.048c-0.224,0-0.335-0.161-0.335-0.5v-0.79 c0-0.258,0.032-0.451,0.112-0.564c0.08-0.113,0.224-0.226,0.447-0.339c0.559-0.29,1.229-0.532,2.012-0.726 c0.782-0.21,1.612-0.306,2.49-0.306c1.9,0,3.289,0.435,4.183,1.306c0.878,0.871,1.325,2.193,1.325,3.966v5.224H13.527z M7.045,23.979c0.527,0,1.07-0.097,1.644-0.29c0.575-0.193,1.086-0.548,1.517-1.032c0.255-0.306,0.447-0.645,0.543-1.032 c0.096-0.387,0.16-0.855,0.16-1.403v-0.677c-0.463-0.113-0.958-0.21-1.469-0.274c-0.511-0.064-1.006-0.097-1.501-0.097 c-1.07,0-1.852,0.21-2.379,0.645s-0.782,1.048-0.782,1.854c0,0.758,0.192,1.322,0.591,1.709 C5.752,23.786,6.311,23.979,7.045,23.979z M19.865,25.721c-0.287,0-0.479-0.048-0.607-0.161c-0.128-0.097-0.239-0.322-0.335-0.629 l-3.752-12.463c-0.096-0.322-0.144-0.532-0.144-0.645c0-0.258,0.128-0.403,0.383-0.403h1.565c0.303,0,0.511,0.048,0.623,0.161 c0.128,0.097,0.223,0.322,0.319,0.629l2.682,10.674l2.49-10.674c0.08-0.322,0.176-0.532,0.303-0.629 c0.128-0.097,0.351-0.161,0.639-0.161h1.277c0.303,0,0.511,0.048,0.639,0.161c0.128,0.097,0.239,0.322,0.303,0.629l2.522,10.803 l2.762-10.803c0.096-0.322,0.208-0.532,0.319-0.629c0.128-0.097,0.335-0.161,0.623-0.161h1.485c0.255,0,0.399,0.129,0.399,0.403 c0,0.081-0.016,0.161-0.032,0.258s-0.048,0.226-0.112,0.403l-3.847,12.463c-0.096,0.322-0.208,0.532-0.335,0.629 s-0.335,0.161-0.607,0.161h-1.373c-0.303,0-0.511-0.048-0.639-0.161c-0.128-0.113-0.239-0.322-0.303-0.645l-2.474-10.4 L22.18,24.915c-0.08,0.322-0.176,0.532-0.303,0.645c-0.128,0.113-0.351,0.161-0.639,0.161H19.865z M40.379,26.156 c-0.83,0-1.66-0.097-2.458-0.29c-0.798-0.193-1.421-0.403-1.836-0.645c-0.255-0.145-0.431-0.306-0.495-0.451 c-0.064-0.145-0.096-0.306-0.096-0.451v-0.822c0-0.339,0.128-0.5,0.367-0.5c0.096,0,0.192,0.016,0.287,0.048 c0.096,0.032,0.239,0.097,0.399,0.161c0.543,0.242,1.133,0.435,1.756,0.564c0.639,0.129,1.261,0.193,1.9,0.193 c1.006,0,1.788-0.177,2.331-0.532c0.543-0.355,0.83-0.871,0.83-1.532c0-0.451-0.144-0.822-0.431-1.129 c-0.287-0.306-0.83-0.58-1.612-0.838l-2.315-0.726c-1.165-0.371-2.027-0.919-2.554-1.645c-0.527-0.709-0.798-1.499-0.798-2.338 c0-0.677,0.144-1.274,0.431-1.79s0.671-0.967,1.149-1.322c0.479-0.371,1.022-0.645,1.66-0.838C39.533,11.081,40.203,11,40.906,11 c0.351,0,0.718,0.016,1.07,0.064c0.367,0.048,0.702,0.113,1.038,0.177c0.319,0.081,0.623,0.161,0.91,0.258s0.511,0.193,0.671,0.29 c0.224,0.129,0.383,0.258,0.479,0.403c0.096,0.129,0.144,0.306,0.144,0.532v0.758c0,0.339-0.128,0.516-0.367,0.516 c-0.128,0-0.335-0.064-0.607-0.193c-0.91-0.419-1.932-0.629-3.065-0.629c-0.91,0-1.628,0.145-2.123,0.451 c-0.495,0.306-0.75,0.774-0.75,1.435c0,0.451,0.16,0.838,0.479,1.145c0.319,0.306,0.91,0.613,1.756,0.887l2.267,0.726 c1.149,0.371,1.98,0.887,2.474,1.548s0.734,1.419,0.734,2.257c0,0.693-0.144,1.322-0.415,1.87 c-0.287,0.548-0.671,1.032-1.165,1.419c-0.495,0.403-1.086,0.693-1.772,0.903C41.943,26.043,41.193,26.156,40.379,26.156z"></path><path fill="#f90" d="M43.396,33.992c-5.252,3.918-12.883,5.998-19.445,5.998c-9.195,0-17.481-3.434-23.739-9.142 c-0.495-0.451-0.048-1.064,0.543-0.709c6.769,3.966,15.118,6.369,23.755,6.369c5.827,0,12.229-1.225,18.119-3.741 C43.508,32.364,44.258,33.347,43.396,33.992z M45.583,31.477c-0.671-0.871-4.438-0.419-6.146-0.21 c-0.511,0.064-0.591-0.387-0.128-0.726c3.001-2.128,7.934-1.516,8.509-0.806c0.575,0.726-0.16,5.708-2.969,8.094 c-0.431,0.371-0.846,0.177-0.655-0.306C44.833,35.927,46.254,32.331,45.583,31.477z"></path>
</svg> -->

<svg xmlns="http://www.w3.org/2000/svg" x="0px" y="0px" width="100" height="100" viewBox="0 0 64 64">
<linearGradient id="0QVtQmKaR0uEiMy4kXJm_a_wU62u24brJ44_gr1" x1="32.002" x2="32.002" y1="53.326" y2="33.119" gradientTransform="matrix(1 0 0 -1 0 66)" gradientUnits="userSpaceOnUse"><stop offset="0" stop-color="#1a6dff"></stop><stop offset="1" stop-color="#c822ff"></stop></linearGradient><path fill="url(#0QVtQmKaR0uEiMy4kXJm_a_wU62u24brJ44_gr1)" d="M18.037,26.712c0,0.796,0.085,1.44,0.235,1.913c0.171,0.473,0.383,0.989,0.681,1.548 c0.107,0.172,0.149,0.344,0.149,0.495c0,0.215-0.128,0.429-0.404,0.645l-1.341,0.903c-0.192,0.129-0.383,0.193-0.553,0.193 c-0.213,0-0.425-0.108-0.639-0.301c-0.299-0.323-0.553-0.667-0.767-1.011c-0.213-0.365-0.425-0.773-0.66-1.268 c-1.66,1.977-3.747,2.967-6.259,2.967c-1.788,0-3.215-0.516-4.257-1.548C3.18,30.216,2.648,28.84,2.648,27.12 c0-1.827,0.639-3.311,1.937-4.428c1.299-1.117,3.023-1.677,5.215-1.677c0.724,0,1.469,0.064,2.256,0.172 c0.787,0.108,1.596,0.28,2.448,0.473v-1.569c0-1.633-0.34-2.773-1-3.44c-0.681-0.667-1.831-0.989-3.469-0.989 c-0.745,0-1.511,0.085-2.299,0.28c-0.788,0.193-1.553,0.429-2.299,0.731c-0.34,0.151-0.596,0.236-0.745,0.28 c-0.149,0.043-0.256,0.064-0.34,0.064c-0.299,0-0.447-0.215-0.447-0.667v-1.053c0-0.344,0.043-0.601,0.149-0.752 c0.107-0.151,0.299-0.301,0.596-0.452c0.745-0.387,1.639-0.709,2.683-0.968c1.043-0.28,2.149-0.408,3.32-0.408 c2.533,0,4.385,0.58,5.577,1.741c1.171,1.161,1.767,2.924,1.767,5.288v6.965L18.037,26.712 C18.037,26.711,18.037,26.712,18.037,26.712z M9.394,29.979c0.703,0,1.427-0.129,2.192-0.387c0.767-0.257,1.448-0.731,2.023-1.376 c0.34-0.408,0.596-0.86,0.724-1.376c0.128-0.516,0.213-1.14,0.213-1.871v-0.903c-0.617-0.151-1.277-0.28-1.959-0.365 c-0.681-0.085-1.341-0.129-2.001-0.129c-1.427,0-2.469,0.28-3.172,0.86s-1.043,1.397-1.043,2.472c0,1.011,0.256,1.763,0.788,2.279 C7.67,29.721,8.416,29.979,9.394,29.979z M26.487,32.301c-0.383,0-0.639-0.064-0.809-0.215c-0.171-0.129-0.319-0.429-0.447-0.839 L20.228,14.63c-0.128-0.429-0.192-0.709-0.192-0.86c0-0.344,0.171-0.537,0.511-0.537h2.087c0.404,0,0.681,0.064,0.831,0.215 c0.171,0.129,0.297,0.429,0.425,0.839l3.576,14.232l3.32-14.232c0.107-0.429,0.235-0.709,0.404-0.839 c0.171-0.129,0.468-0.215,0.852-0.215h1.703c0.404,0,0.681,0.064,0.852,0.215c0.171,0.129,0.319,0.429,0.404,0.839l3.363,14.404 l3.683-14.404c0.128-0.429,0.277-0.709,0.425-0.839c0.171-0.129,0.447-0.215,0.831-0.215h1.98c0.34,0,0.532,0.172,0.532,0.537 c0,0.108-0.021,0.215-0.043,0.344c-0.021,0.129-0.064,0.301-0.149,0.537l-5.129,16.617c-0.128,0.429-0.277,0.709-0.447,0.839 c-0.169,0.129-0.447,0.215-0.809,0.215h-1.831c-0.404,0-0.681-0.064-0.852-0.215c-0.171-0.151-0.319-0.429-0.404-0.86 l-3.299-13.866l-3.277,13.845c-0.107,0.429-0.235,0.709-0.404,0.86c-0.171,0.151-0.468,0.215-0.852,0.215H26.487z M53.839,32.881 c-1.107,0-2.213-0.129-3.277-0.387c-1.064-0.257-1.895-0.537-2.448-0.86c-0.34-0.193-0.575-0.408-0.66-0.601 c-0.085-0.193-0.128-0.408-0.128-0.601v-1.096c0-0.452,0.171-0.667,0.489-0.667c0.128,0,0.256,0.021,0.383,0.064 c0.128,0.043,0.319,0.129,0.532,0.215c0.724,0.323,1.511,0.58,2.341,0.752c0.852,0.172,1.681,0.257,2.533,0.257 c1.341,0,2.384-0.236,3.108-0.709c0.724-0.473,1.107-1.161,1.107-2.043c0-0.601-0.192-1.096-0.575-1.505 c-0.383-0.408-1.107-0.773-2.149-1.117l-3.087-0.968c-1.553-0.495-2.703-1.225-3.405-2.193c-0.703-0.945-1.064-1.999-1.064-3.117 c0-0.903,0.192-1.699,0.575-2.387c0.383-0.688,0.895-1.289,1.532-1.763c0.639-0.495,1.363-0.86,2.213-1.117 c0.852-0.256,1.745-0.364,2.683-0.364c0.468,0,0.957,0.021,1.427,0.085c0.489,0.064,0.936,0.151,1.384,0.236 c0.425,0.108,0.831,0.215,1.213,0.344s0.681,0.257,0.895,0.387c0.299,0.172,0.511,0.344,0.639,0.537 c0.128,0.172,0.192,0.408,0.192,0.709v1.011c0,0.452-0.171,0.688-0.489,0.688c-0.171,0-0.447-0.085-0.809-0.257 c-1.213-0.559-2.576-0.839-4.087-0.839c-1.213,0-2.171,0.193-2.831,0.601s-1,1.032-1,1.913c0,0.601,0.213,1.117,0.639,1.527 c0.425,0.408,1.213,0.817,2.341,1.183l3.023,0.968c1.532,0.495,2.64,1.183,3.299,2.064c0.659,0.881,0.979,1.892,0.979,3.009 c0,0.924-0.192,1.763-0.553,2.493c-0.383,0.731-0.895,1.376-1.553,1.892c-0.66,0.537-1.448,0.924-2.363,1.204 C55.924,32.731,54.924,32.881,53.839,32.881z"></path><linearGradient id="0QVtQmKaR0uEiMy4kXJm_b_wU62u24brJ44_gr2" x1="32" x2="32" y1="29.23" y2="14.674" gradientTransform="matrix(1 0 0 -1 0 66)" gradientUnits="userSpaceOnUse"><stop offset="0" stop-color="#6dc7ff"></stop><stop offset="1" stop-color="#e6abff"></stop></linearGradient><path fill="url(#0QVtQmKaR0uEiMy4kXJm_b_wU62u24brJ44_gr2)" d="M57.862,43.329 c-7.003,5.224-17.177,7.997-25.926,7.997c-12.26,0-23.308-4.579-31.652-12.189c-0.66-0.601-0.064-1.419,0.724-0.945 c9.025,5.288,20.157,8.492,31.673,8.492c7.769,0,16.305-1.633,24.158-4.988C58.011,41.159,59.011,42.469,57.862,43.329z M60.778,39.976c-0.895-1.161-5.917-0.559-8.195-0.28c-0.681,0.085-0.788-0.516-0.171-0.968c4.001-2.837,10.579-2.021,11.345-1.075 c0.767,0.968-0.213,7.611-3.959,10.792c-0.575,0.495-1.128,0.236-0.873-0.408C59.778,45.909,61.672,41.115,60.778,39.976z"></path>
</svg>