<!-- <svg xmlns="http://www.w3.org/2000/svg" xmlns:xlink="http://www.w3.org/1999/xlink" version="1.1" width="256" height="256" viewBox="0 0 256 256" xml:space="preserve">

<defs>
</defs>
<g style="stroke: none; stroke-width: 0; stroke-dasharray: none; stroke-linecap: butt; stroke-linejoin: miter; stroke-miterlimit: 10; fill: none; fill-rule: nonzero; opacity: 1;" transform="translate(1.4065934065934016 1.4065934065934016) scale(2.81 2.81)" >
	<path d="M 78.045 37.212 c -0.264 -2.766 -0.939 -5.411 -1.963 -7.875 C 71.957 19.41 62.17 12.428 50.75 12.428 c -5.328 0 -10.3 1.52 -14.507 4.149 c -6.501 4.063 -11.176 10.777 -12.517 18.627 h -3.127 C 9.775 35.205 1 43.979 1 54.803 v 0 c 0 10.824 8.775 19.599 19.599 19.599 h 48.803 C 80.225 74.402 89 65.627 89 54.803 v 0 C 89 47.082 84.533 40.407 78.045 37.212 z" style="stroke: none; stroke-width: 1; stroke-dasharray: none; stroke-linecap: butt; stroke-linejoin: miter; stroke-miterlimit: 10; fill: rgb(105,227,255); fill-rule: nonzero; opacity: 1;" transform=" matrix(1 0 0 1 0 0) " stroke-linecap="round" />
	<path d="M 11.41 6.978 L 11.41 6.978 c 0.265 -0.11 0.285 -0.354 0.285 -0.427 c 0 -0.072 -0.02 -0.317 -0.285 -0.427 c -0.133 -0.055 -0.237 -0.159 -0.292 -0.292 s -0.055 -0.28 0 -0.413 l 0.352 -0.849 c 0.114 -0.275 0.43 -0.406 0.706 -0.292 c 0.265 0.11 0.452 -0.049 0.503 -0.1 c 0.051 -0.051 0.21 -0.239 0.1 -0.503 c -0.055 -0.133 -0.055 -0.28 0 -0.413 c 0.055 -0.133 0.159 -0.237 0.292 -0.292 l 0.849 -0.352 c 0.275 -0.114 0.591 0.017 0.706 0.292 c 0.11 0.264 0.354 0.285 0.427 0.285 c 0.072 0 0.317 -0.02 0.427 -0.285 c 0.055 -0.133 0.159 -0.237 0.292 -0.292 c 0.133 -0.055 0.28 -0.055 0.413 0 l 0.849 0.352 c 0.133 0.055 0.237 0.159 0.292 0.292 c 0.055 0.133 0.055 0.28 0 0.413 c -0.11 0.265 0.049 0.452 0.1 0.503 c 0.051 0.051 0.239 0.21 0.503 0.1 c 0.133 -0.055 0.28 -0.055 0.413 0 c 0.133 0.055 0.237 0.159 0.292 0.292 l 0.352 0.849 c 0.055 0.133 0.055 0.28 0 0.413 s -0.159 0.237 -0.292 0.292 c -0.264 0.11 -0.285 0.354 -0.285 0.427 s 0.021 0.317 0.285 0.427 c 0.275 0.114 0.406 0.431 0.292 0.706 l -0.352 0.849 c -0.055 0.133 -0.159 0.237 -0.292 0.292 c -0.133 0.055 -0.28 0.055 -0.413 0 c -0.264 -0.109 -0.452 0.049 -0.503 0.1 c -0.051 0.051 -0.21 0.239 -0.1 0.503 c 0.114 0.275 -0.017 0.592 -0.292 0.706 l -0.849 0.352 c -0.067 0.028 -0.137 0.041 -0.207 0.041 s -0.14 -0.014 -0.207 -0.041 c -0.133 -0.055 -0.237 -0.159 -0.292 -0.292 c -0.11 -0.265 -0.354 -0.285 -0.427 -0.285 l 0 0 c -0.072 0 -0.317 0.02 -0.427 0.285 c -0.114 0.275 -0.431 0.406 -0.706 0.292 l -0.849 -0.352 c -0.275 -0.114 -0.406 -0.431 -0.292 -0.706 c 0.11 -0.265 -0.049 -0.452 -0.1 -0.503 c -0.051 -0.051 -0.238 -0.21 -0.503 -0.1 C 11.9 8.938 11.584 8.807 11.47 8.532 l -0.352 -0.849 C 11.004 7.408 11.135 7.092 11.41 6.978 z M 15.053 8.042 c 0.822 0 1.491 -0.669 1.491 -1.491 S 15.875 5.06 15.053 5.06 c -0.822 0 -1.491 0.669 -1.491 1.491 S 14.231 8.042 15.053 8.042 z" style="stroke: none; stroke-width: 1; stroke-dasharray: none; stroke-linecap: butt; stroke-linejoin: miter; stroke-miterlimit: 10; fill: rgb(249,249,249); fill-rule: nonzero; opacity: 1;" transform=" matrix(3.89 0 0 3.89 -1.9444444444444287 -1.9444444444444287) " stroke-linecap="round" />
	<path d="M 42.007 61.715 H 35.14 c -0.552 0 -1 -0.447 -1 -1 V 47.139 c 0 -0.553 0.448 -1 1 -1 h 6.867 c 0.552 0 1 0.447 1 1 s -0.448 1 -1 1 H 36.14 v 11.576 h 5.867 c 0.552 0 1 0.447 1 1 S 42.56 61.715 42.007 61.715 z" style="stroke: none; stroke-width: 1; stroke-dasharray: none; stroke-linecap: butt; stroke-linejoin: miter; stroke-miterlimit: 10; fill: rgb(0,0,0); fill-rule: nonzero; opacity: 1;" transform=" matrix(1 0 0 1 0 0) " stroke-linecap="round" />
	<path d="M 39.925 54.927 H 35.14 c -0.552 0 -1 -0.447 -1 -1 s 0.448 -1 1 -1 h 4.785 c 0.552 0 1 0.447 1 1 S 40.478 54.927 39.925 54.927 z" style="stroke: none; stroke-width: 1; stroke-dasharray: none; stroke-linecap: butt; stroke-linejoin: miter; stroke-miterlimit: 10; fill: rgb(0,0,0); fill-rule: nonzero; opacity: 1;" transform=" matrix(1 0 0 1 0 0) " stroke-linecap="round" />
	<path d="M 25.697 54.927 h -4.674 c -0.552 0 -1 -0.447 -1 -1 v -6.788 c 0 -0.553 0.448 -1 1 -1 h 4.674 c 1.983 0 3.596 1.613 3.596 3.596 v 1.597 C 29.293 53.313 27.68 54.927 25.697 54.927 z M 22.023 52.927 h 3.674 c 0.88 0 1.596 -0.716 1.596 -1.596 v -1.597 c 0 -0.88 -0.716 -1.596 -1.596 -1.596 h -3.674 V 52.927 z" style="stroke: none; stroke-width: 1; stroke-dasharray: none; stroke-linecap: butt; stroke-linejoin: miter; stroke-miterlimit: 10; fill: rgb(0,0,0); fill-rule: nonzero; opacity: 1;" transform=" matrix(1 0 0 1 0 0) " stroke-linecap="round" />
	<path d="M 28.293 61.715 c -0.552 0 -1 -0.447 -1 -1 v -4.192 c 0 -0.88 -0.716 -1.596 -1.596 -1.596 h -3.674 v 5.788 c 0 0.553 -0.448 1 -1 1 s -1 -0.447 -1 -1 v -6.788 c 0 -0.553 0.448 -1 1 -1 h 4.674 c 1.983 0 3.596 1.613 3.596 3.596 v 4.192 C 29.293 61.268 28.845 61.715 28.293 61.715 z" style="stroke: none; stroke-width: 1; stroke-dasharray: none; stroke-linecap: butt; stroke-linejoin: miter; stroke-miterlimit: 10; fill: rgb(0,0,0); fill-rule: nonzero; opacity: 1;" transform=" matrix(1 0 0 1 0 0) " stroke-linecap="round" />
	<path d="M 68.977 48.139 h -8.564 c -0.553 0 -1 -0.447 -1 -1 s 0.447 -1 1 -1 h 8.564 c 0.553 0 1 0.447 1 1 S 69.529 48.139 68.977 48.139 z" style="stroke: none; stroke-width: 1; stroke-dasharray: none; stroke-linecap: butt; stroke-linejoin: miter; stroke-miterlimit: 10; fill: rgb(0,0,0); fill-rule: nonzero; opacity: 1;" transform=" matrix(1 0 0 1 0 0) " stroke-linecap="round" />
	<path d="M 64.694 61.715 c -0.553 0 -1 -0.447 -1 -1 V 47.139 c 0 -0.553 0.447 -1 1 -1 s 1 0.447 1 1 v 13.576 C 65.694 61.268 65.247 61.715 64.694 61.715 z" style="stroke: none; stroke-width: 1; stroke-dasharray: none; stroke-linecap: butt; stroke-linejoin: miter; stroke-miterlimit: 10; fill: rgb(0,0,0); fill-rule: nonzero; opacity: 1;" transform=" matrix(1 0 0 1 0 0) " stroke-linecap="round" />
	<path d="M 51.715 61.715 h -1.259 c -2.064 0 -3.743 -1.632 -3.743 -3.638 c 0 -0.553 0.447 -1 1 -1 s 1 0.447 1 1 c 0 0.903 0.782 1.638 1.743 1.638 h 1.259 c 1.041 0 1.888 -0.797 1.888 -1.777 v -1.233 c 0 -0.98 -0.847 -1.777 -1.888 -1.777 h -1.113 c -2.145 0 -3.889 -1.694 -3.889 -3.777 v -1.233 c 0 -2.083 1.744 -3.777 3.889 -3.777 h 1.259 c 2.063 0 3.742 1.632 3.742 3.637 c 0 0.553 -0.447 1 -1 1 s -1 -0.447 -1 -1 c 0 -0.902 -0.781 -1.637 -1.742 -1.637 h -1.259 c -1.041 0 -1.889 0.797 -1.889 1.777 v 1.233 c 0 0.98 0.848 1.777 1.889 1.777 h 1.113 c 2.144 0 3.888 1.694 3.888 3.777 v 1.233 C 55.603 60.021 53.858 61.715 51.715 61.715 z" style="stroke: none; stroke-width: 1; stroke-dasharray: none; stroke-linecap: butt; stroke-linejoin: miter; stroke-miterlimit: 10; fill: rgb(0,0,0); fill-rule: nonzero; opacity: 1;" transform=" matrix(1 0 0 1 0 0) " stroke-linecap="round" />
	<path d="M 37.739 82.928 c -0.552 0 -1 -0.447 -1 -1 V 71.279 c 0 -1.063 -0.865 -1.928 -1.927 -1.928 h -2.572 c -1.063 0 -1.927 0.865 -1.927 1.928 v 10.648 c 0 0.553 -0.448 1 -1 1 s -1 -0.447 -1 -1 V 71.279 c 0 -2.166 1.762 -3.928 3.927 -3.928 h 2.572 c 2.166 0 3.927 1.762 3.927 3.928 v 10.648 C 38.739 82.48 38.291 82.928 37.739 82.928 z" style="stroke: none; stroke-width: 1; stroke-dasharray: none; stroke-linecap: butt; stroke-linejoin: miter; stroke-miterlimit: 10; fill: rgb(0,0,0); fill-rule: nonzero; opacity: 1;" transform=" matrix(1 0 0 1 0 0) " stroke-linecap="round" />
	<path d="M 37.739 76.14 h -8.427 c -0.552 0 -1 -0.447 -1 -1 s 0.448 -1 1 -1 h 8.427 c 0.552 0 1 0.447 1 1 S 38.291 76.14 37.739 76.14 z" style="stroke: none; stroke-width: 1; stroke-dasharray: none; stroke-linecap: butt; stroke-linejoin: miter; stroke-miterlimit: 10; fill: rgb(0,0,0); fill-rule: nonzero; opacity: 1;" transform=" matrix(1 0 0 1 0 0) " stroke-linecap="round" />
	<path d="M 58.991 82.928 c -0.553 0 -1 -0.447 -1 -1 V 68.352 c 0 -0.553 0.447 -1 1 -1 s 1 0.447 1 1 v 13.576 C 59.991 82.48 59.544 82.928 58.991 82.928 z" style="stroke: none; stroke-width: 1; stroke-dasharray: none; stroke-linecap: butt; stroke-linejoin: miter; stroke-miterlimit: 10; fill: rgb(0,0,0); fill-rule: nonzero; opacity: 1;" transform=" matrix(1 0 0 1 0 0) " stroke-linecap="round" />
	<path d="M 49.896 76.967 h -4.97 c -0.552 0 -1 -0.447 -1 -1 v -7.615 c 0 -0.553 0.448 -1 1 -1 h 4.97 c 2.01 0 3.645 1.636 3.645 3.646 v 2.324 C 53.54 75.331 51.905 76.967 49.896 76.967 z M 45.925 74.967 h 3.97 c 0.907 0 1.645 -0.738 1.645 -1.646 v -2.324 c 0 -0.907 -0.737 -1.646 -1.645 -1.646 h -3.97 V 74.967 z" style="stroke: none; stroke-width: 1; stroke-dasharray: none; stroke-linecap: butt; stroke-linejoin: miter; stroke-miterlimit: 10; fill: rgb(0,0,0); fill-rule: nonzero; opacity: 1;" transform=" matrix(1 0 0 1 0 0) " stroke-linecap="round" />
	<path d="M 44.925 82.928 c -0.552 0 -1 -0.447 -1 -1 v -5.961 c 0 -0.553 0.448 -1 1 -1 s 1 0.447 1 1 v 5.961 C 45.925 82.48 45.478 82.928 44.925 82.928 z" style="stroke: none; stroke-width: 1; stroke-dasharray: none; stroke-linecap: butt; stroke-linejoin: miter; stroke-miterlimit: 10; fill: rgb(0,0,0); fill-rule: nonzero; opacity: 1;" transform=" matrix(1 0 0 1 0 0) " stroke-linecap="round" />
	<path d="M 69.401 75.401 c -0.553 0 -1 -0.447 -1 -1 s 0.447 -1 1 -1 C 79.656 73.401 88 65.059 88 54.804 c 0 -7.14 -3.983 -13.537 -10.396 -16.694 c -0.312 -0.153 -0.521 -0.457 -0.554 -0.802 c -0.251 -2.616 -0.887 -5.168 -1.892 -7.587 c -0.212 -0.51 0.03 -1.095 0.54 -1.307 c 0.513 -0.212 1.096 0.03 1.308 0.54 c 1.01 2.433 1.674 4.991 1.977 7.614 C 85.793 40.145 90 47.081 90 54.803 C 90 66.161 80.76 75.401 69.401 75.401 z" style="stroke: none; stroke-width: 1; stroke-dasharray: none; stroke-linecap: butt; stroke-linejoin: miter; stroke-miterlimit: 10; fill: rgb(0,0,0); fill-rule: nonzero; opacity: 1;" transform=" matrix(1 0 0 1 0 0) " stroke-linecap="round" />
	<path d="M 20.599 75.401 C 9.241 75.401 0 66.161 0 54.804 c 0 -11.358 9.241 -20.599 20.599 -20.599 h 2.296 c 1.539 -7.625 6.174 -14.323 12.818 -18.475 c 0.468 -0.292 1.085 -0.149 1.378 0.318 c 0.292 0.468 0.15 1.085 -0.318 1.378 c -6.4 4 -10.796 10.542 -12.061 17.947 c -0.082 0.48 -0.499 0.832 -0.986 0.832 h -3.127 C 10.343 36.205 2 44.548 2 54.803 s 8.343 18.599 18.599 18.599 c 0.552 0 1 0.447 1 1 S 21.151 75.401 20.599 75.401 z" style="stroke: none; stroke-width: 1; stroke-dasharray: none; stroke-linecap: butt; stroke-linejoin: miter; stroke-miterlimit: 10; fill: rgb(0,0,0); fill-rule: nonzero; opacity: 1;" transform=" matrix(1 0 0 1 0 0) " stroke-linecap="round" />
	<path d="M 15.978 10.784 c -0.105 0 -0.208 -0.021 -0.305 -0.061 c -0.197 -0.081 -0.35 -0.235 -0.431 -0.431 c -0.043 -0.105 -0.127 -0.127 -0.189 -0.127 c -0.063 0 -0.146 0.022 -0.189 0.127 c -0.168 0.405 -0.635 0.599 -1.041 0.431 l -0.85 -0.352 c -0.406 -0.168 -0.599 -0.636 -0.431 -1.041 c 0.046 -0.11 -0.008 -0.187 -0.044 -0.223 c -0.045 -0.045 -0.12 -0.088 -0.224 -0.045 c -0.406 0.167 -0.873 -0.026 -1.042 -0.431 l -0.352 -0.849 c -0.168 -0.406 0.025 -0.873 0.431 -1.041 h 0 c 0.105 -0.043 0.127 -0.127 0.127 -0.189 c 0 -0.063 -0.022 -0.146 -0.126 -0.189 c -0.197 -0.081 -0.35 -0.235 -0.431 -0.431 c -0.082 -0.197 -0.082 -0.413 0 -0.61 l 0.352 -0.849 c 0.169 -0.406 0.636 -0.599 1.042 -0.431 c 0.105 0.043 0.179 0 0.223 -0.044 c 0.045 -0.045 0.088 -0.119 0.045 -0.224 c -0.081 -0.197 -0.081 -0.413 0 -0.61 c 0.082 -0.197 0.235 -0.35 0.431 -0.431 l 0.849 -0.352 c 0.406 -0.168 0.873 0.026 1.042 0.431 c 0.043 0.104 0.127 0.126 0.189 0.126 c 0.063 0 0.146 -0.022 0.189 -0.126 c 0.082 -0.197 0.235 -0.35 0.432 -0.432 c 0.197 -0.082 0.413 -0.081 0.61 0 l 0.849 0.352 c 0.197 0.082 0.35 0.235 0.432 0.431 c 0.082 0.197 0.082 0.414 0 0.61 c -0.043 0.104 0 0.179 0.044 0.223 c 0.045 0.045 0.119 0.088 0.223 0.045 c 0.197 -0.081 0.414 -0.081 0.61 0 c 0.197 0.082 0.35 0.235 0.432 0.432 l 0.351 0.849 c 0.082 0.197 0.082 0.413 0 0.61 c -0.082 0.197 -0.235 0.35 -0.432 0.432 c -0.104 0.043 -0.126 0.127 -0.126 0.189 c 0 0.062 0.022 0.146 0.127 0.189 c 0.197 0.081 0.35 0.235 0.431 0.432 c 0.082 0.197 0.082 0.413 0 0.61 l -0.352 0.849 c -0.081 0.197 -0.234 0.35 -0.431 0.431 c -0.197 0.081 -0.414 0.081 -0.61 0 c -0.105 -0.044 -0.179 0 -0.223 0.044 c -0.044 0.044 -0.088 0.119 -0.044 0.223 c 0.168 0.406 -0.025 0.873 -0.431 1.041 l -0.849 0.352 C 16.186 10.764 16.083 10.784 15.978 10.784 z M 15.053 9.651 c 0.232 0 0.529 0.117 0.664 0.444 c 0.029 0.07 0.083 0.124 0.153 0.153 c 0.07 0.029 0.147 0.029 0.217 0 l 0.849 -0.352 c 0.144 -0.06 0.213 -0.226 0.153 -0.37 c -0.136 -0.328 -0.008 -0.62 0.156 -0.784 c 0.164 -0.164 0.456 -0.291 0.783 -0.156 c 0.071 0.029 0.146 0.029 0.217 0 c 0.07 -0.029 0.124 -0.083 0.153 -0.153 l 0.352 -0.849 c 0.029 -0.07 0.029 -0.146 0 -0.216 c -0.029 -0.07 -0.083 -0.124 -0.153 -0.153 c -0.327 -0.136 -0.444 -0.432 -0.444 -0.664 c 0 -0.232 0.116 -0.529 0.444 -0.664 c 0.07 -0.029 0.124 -0.083 0.153 -0.153 c 0.029 -0.07 0.029 -0.147 0 -0.217 l -0.352 -0.849 c -0.029 -0.07 -0.083 -0.124 -0.153 -0.153 c -0.07 -0.029 -0.147 -0.029 -0.217 0 c -0.326 0.136 -0.619 0.009 -0.784 -0.156 c -0.164 -0.163 -0.291 -0.456 -0.155 -0.783 c 0.029 -0.07 0.029 -0.147 0 -0.217 c -0.029 -0.07 -0.083 -0.124 -0.153 -0.153 l -0.849 -0.352 c -0.071 -0.029 -0.146 -0.029 -0.217 0 c -0.07 0.029 -0.125 0.083 -0.153 0.153 c -0.135 0.327 -0.432 0.444 -0.664 0.444 s -0.529 -0.116 -0.664 -0.443 c -0.06 -0.144 -0.226 -0.213 -0.37 -0.153 L 13.17 3.206 c -0.07 0.029 -0.124 0.083 -0.153 0.153 c -0.029 0.07 -0.029 0.147 0 0.217 c 0.136 0.328 0.008 0.62 -0.157 0.784 c -0.163 0.164 -0.455 0.291 -0.783 0.155 c -0.144 -0.06 -0.31 0.009 -0.37 0.153 l -0.352 0.849 c -0.029 0.07 -0.029 0.147 0 0.216 c 0.029 0.07 0.083 0.125 0.153 0.153 c 0.328 0.136 0.444 0.432 0.444 0.665 c 0 0.232 -0.117 0.528 -0.444 0.664 L 11.41 6.978 l 0.098 0.237 c -0.144 0.06 -0.213 0.226 -0.153 0.37 l 0.352 0.849 c 0.06 0.144 0.227 0.213 0.37 0.153 c 0.327 -0.135 0.619 -0.008 0.783 0.156 c 0.164 0.163 0.292 0.455 0.156 0.783 c -0.06 0.144 0.009 0.31 0.153 0.37 l 0.849 0.352 c 0.144 0.06 0.31 -0.009 0.37 -0.153 C 14.524 9.768 14.82 9.651 15.053 9.651 z M 15.053 8.299 c -0.964 0 -1.748 -0.784 -1.748 -1.748 s 0.784 -1.748 1.748 -1.748 c 0.964 0 1.748 0.784 1.748 1.748 S 16.017 8.299 15.053 8.299 z M 15.053 5.317 c -0.681 0 -1.234 0.554 -1.234 1.234 s 0.554 1.234 1.234 1.234 c 0.68 0 1.234 -0.554 1.234 -1.234 S 15.733 5.317 15.053 5.317 z" style="stroke: none; stroke-width: 1; stroke-dasharray: none; stroke-linecap: butt; stroke-linejoin: miter; stroke-miterlimit: 10; fill: rgb(0,0,0); fill-rule: nonzero; opacity: 1;" transform=" matrix(3.89 0 0 3.89 -1.9444444444444287 -1.9444444444444287) " stroke-linecap="round" />
</g>
</svg> -->



<!-- <svg xmlns="http://www.w3.org/2000/svg" xmlns:xlink="http://www.w3.org/1999/xlink" version="1.1" width="256" height="256" viewBox="0 0 256 256" xml:space="preserve">

<defs>
</defs>
<g style="stroke: none; stroke-width: 0; stroke-dasharray: none; stroke-linecap: butt; stroke-linejoin: miter; stroke-miterlimit: 10; fill: none; fill-rule: nonzero; opacity: 1;" transform="translate(1.4065934065934016 1.4065934065934016) scale(2.81 2.81)" >
	<linearGradient id="SVGID_6" gradientUnits="userSpaceOnUse" x1="24.2649" y1="80.6483" x2="24.2649" y2="4.3033">
<stop offset="0%" style="stop-color:rgb(0,94,208);stop-opacity: 1"/>
<stop offset="100%" style="stop-color:rgb(48,186,255);stop-opacity: 1"/>
</linearGradient>
<path d="M 29.667 47.443 c 1.104 0 2 -0.896 2 -2 V 30.262 c 0 -3.403 -2.769 -6.172 -6.173 -6.172 h -2.458 c -3.404 0 -6.173 2.769 -6.173 6.172 v 15.181 c 0 1.105 0.896 2 2 2 s 2 -0.896 2 -2 v -7.677 h 6.803 v 7.677 C 27.667 46.548 28.562 47.443 29.667 47.443 z M 20.863 33.766 v -3.504 c 0 -1.198 0.975 -2.172 2.173 -2.172 h 2.458 c 1.198 0 2.173 0.975 2.173 2.172 v 3.504 H 20.863 z" style="stroke: none; stroke-width: 1; stroke-dasharray: none; stroke-linecap: butt; stroke-linejoin: miter; stroke-miterlimit: 10; fill: url(#SVGID_6); fill-rule: nonzero; opacity: 1;" transform=" matrix(1 0 0 1 0 0) " stroke-linecap="round" />
	<linearGradient id="SVGID_7" gradientUnits="userSpaceOnUse" x1="43.0034" y1="80.6483" x2="43.0034" y2="4.3033">
<stop offset="0%" style="stop-color:rgb(0,94,208);stop-opacity: 1"/>
<stop offset="100%" style="stop-color:rgb(48,186,255);stop-opacity: 1"/>
</linearGradient>
<path d="M 37.822 24.089 c -1.104 0 -2 0.896 -2 2 v 9.677 v 9.677 c 0 1.105 0.896 2 2 2 s 2 -0.896 2 -2 v -7.677 h 4.662 c 3.144 0 5.7 -2.557 5.7 -5.7 V 29.79 c 0 -3.143 -2.557 -5.7 -5.7 -5.7 H 37.822 z M 46.185 29.79 v 2.276 c 0 0.938 -0.763 1.7 -1.7 1.7 h -4.662 v -5.677 h 4.662 C 45.422 28.089 46.185 28.852 46.185 29.79 z" style="stroke: none; stroke-width: 1; stroke-dasharray: none; stroke-linecap: butt; stroke-linejoin: miter; stroke-miterlimit: 10; fill: url(#SVGID_7); fill-rule: nonzero; opacity: 1;" transform=" matrix(1 0 0 1 0 0) " stroke-linecap="round" />
	<linearGradient id="SVGID_8" gradientUnits="userSpaceOnUse" x1="55.6943" y1="80.6483" x2="55.6943" y2="4.3033">
<stop offset="0%" style="stop-color:rgb(0,94,208);stop-opacity: 1"/>
<stop offset="100%" style="stop-color:rgb(48,186,255);stop-opacity: 1"/>
</linearGradient>
<path d="M 53.694 26.089 v 19.354 c 0 1.105 0.896 2 2 2 s 2 -0.896 2 -2 V 26.089 c 0 -1.104 -0.896 -2 -2 -2 S 53.694 24.985 53.694 26.089 z" style="stroke: none; stroke-width: 1; stroke-dasharray: none; stroke-linecap: butt; stroke-linejoin: miter; stroke-miterlimit: 10; fill: url(#SVGID_8); fill-rule: nonzero; opacity: 1;" transform=" matrix(1 0 0 1 0 0) " stroke-linecap="round" />
	<linearGradient id="SVGID_9" gradientUnits="userSpaceOnUse" x1="45.3111" y1="80.6483" x2="45.3111" y2="4.3033">
<stop offset="0%" style="stop-color:rgb(0,94,208);stop-opacity: 1"/>
<stop offset="100%" style="stop-color:rgb(48,186,255);stop-opacity: 1"/>
</linearGradient>
<path d="M 53.478 69.922 c -8.096 4.677 -18.486 1.89 -23.16 -6.206 c -0.762 -1.318 -1.34 -2.736 -1.721 -4.214 c -0.275 -1.069 -1.368 -1.712 -2.436 -1.438 c -1.07 0.275 -1.714 1.365 -1.438 2.436 c 0.471 1.828 1.188 3.584 2.131 5.216 c 3.876 6.716 10.934 10.474 18.182 10.474 c 3.552 -0.001 7.151 -0.903 10.442 -2.803 c 9.2 -5.313 12.975 -16.666 8.78 -26.411 c -0.437 -1.015 -1.615 -1.484 -2.628 -1.046 c -1.015 0.437 -1.482 1.613 -1.046 2.628 C 63.977 56.439 60.921 65.624 53.478 69.922 z" style="stroke: none; stroke-width: 1; stroke-dasharray: none; stroke-linecap: butt; stroke-linejoin: miter; stroke-miterlimit: 10; fill: url(#SVGID_9); fill-rule: nonzero; opacity: 1;" transform=" matrix(1 0 0 1 0 0) " stroke-linecap="round" />
	<linearGradient id="SVGID_10" gradientUnits="userSpaceOnUse" x1="45.0381" y1="80.6483" x2="45.0381" y2="4.3033">
<stop offset="0%" style="stop-color:rgb(0,94,208);stop-opacity: 1"/>
<stop offset="100%" style="stop-color:rgb(48,186,255);stop-opacity: 1"/>
</linearGradient>
<path d="M 73.13 44.001 c -1.213 0 -2.329 -0.702 -2.915 -1.834 c -0.197 -0.379 -0.402 -0.757 -0.616 -1.126 c -0.217 -0.376 -0.441 -0.745 -0.674 -1.106 c -0.597 -0.929 -1.833 -1.199 -2.764 -0.6 c -0.929 0.598 -1.197 1.835 -0.6 2.764 c 0.197 0.307 0.387 0.619 0.573 0.943 c 0.186 0.32 0.361 0.643 0.528 0.965 c 1.273 2.464 3.752 3.995 6.467 3.995 c 1.784 0 3.235 1.451 3.235 3.234 v 8.008 c 0 1.783 -1.451 3.234 -3.238 3.234 c -2.719 0 -5.182 1.506 -6.427 3.93 c -0.36 0.7 -0.759 1.39 -1.184 2.05 c -1.473 2.287 -1.542 5.17 -0.183 7.523 c 0.432 0.749 0.547 1.62 0.323 2.455 s -0.76 1.532 -1.508 1.964 l -6.935 4.004 c -1.539 0.893 -3.515 0.364 -4.411 -1.17 c -0.003 -0.005 -0.006 -0.01 -0.009 -0.016 c -1.358 -2.354 -3.888 -3.716 -6.606 -3.603 c -0.778 0.039 -1.575 0.039 -2.367 0 c -2.724 -0.138 -5.257 1.247 -6.616 3.602 c -0.004 0.007 -0.007 0.013 -0.011 0.02 c -0.896 1.531 -2.87 2.057 -4.41 1.167 l -6.934 -4.004 c -0.749 -0.432 -1.284 -1.129 -1.507 -1.964 c -0.224 -0.835 -0.109 -1.707 0.323 -2.455 c 1.358 -2.351 1.271 -5.262 -0.226 -7.596 c -0.197 -0.309 -0.389 -0.623 -0.574 -0.944 c -0.185 -0.319 -0.361 -0.643 -0.529 -0.969 c -1.275 -2.464 -3.752 -3.994 -6.467 -3.994 c -1.607 0 -2.945 -1.163 -3.18 -2.767 c -0.16 -1.092 -1.174 -1.85 -2.269 -1.688 c -1.093 0.16 -1.849 1.176 -1.689 2.269 c 0.517 3.527 3.585 6.187 7.138 6.187 c 1.212 0 2.329 0.702 2.913 1.831 c 0.196 0.38 0.403 0.758 0.619 1.132 s 0.439 0.741 0.67 1.102 c 0.686 1.071 0.736 2.389 0.129 3.438 c -0.966 1.674 -1.223 3.623 -0.723 5.49 c 0.5 1.867 1.698 3.427 3.371 4.394 l 6.934 4.004 c 1.137 0.655 2.379 0.968 3.605 0.968 c 2.502 0 4.939 -1.298 6.278 -3.616 c 0.004 -0.006 0.007 -0.013 0.011 -0.02 c 0.609 -1.039 1.726 -1.658 2.949 -1.589 c 0.922 0.043 1.85 0.043 2.755 0 c 1.23 -0.062 2.332 0.551 2.939 1.592 c 0.003 0.006 0.006 0.012 0.01 0.017 c 1.994 3.453 6.427 4.641 9.883 2.648 l 6.935 -4.004 c 1.674 -0.967 2.871 -2.526 3.371 -4.394 s 0.243 -3.817 -0.724 -5.491 c -0.606 -1.05 -0.574 -2.336 0.083 -3.357 c 0.495 -0.769 0.958 -1.571 1.377 -2.387 c 0.558 -1.084 1.657 -1.758 2.873 -1.758 c 3.989 0 7.235 -3.245 7.235 -7.234 v -8.008 C 80.365 47.246 77.119 44.001 73.13 44.001 z" style="stroke: none; stroke-width: 1; stroke-dasharray: none; stroke-linecap: butt; stroke-linejoin: miter; stroke-miterlimit: 10; fill: url(#SVGID_10); fill-rule: nonzero; opacity: 1;" transform=" matrix(1 0 0 1 0 0) " stroke-linecap="round" />
	<linearGradient id="SVGID_11" gradientUnits="userSpaceOnUse" x1="45" y1="80.6483" x2="45" y2="4.3033">
<stop offset="0%" style="stop-color:rgb(0,94,208);stop-opacity: 1"/>
<stop offset="100%" style="stop-color:rgb(48,186,255);stop-opacity: 1"/>
</linearGradient>
<path d="M 81.061 26.991 C 80.798 16.723 72.363 8.452 62.033 8.452 c -3.216 0 -6.336 0.802 -9.126 2.333 c -4.982 -6.057 -12.454 -9.623 -20.339 -9.623 c -14.515 0 -26.324 11.809 -26.324 26.324 c 0 0.347 0.008 0.7 0.024 1.065 C 2.322 31.413 0 35.922 0 40.841 c 0 8.388 6.824 15.212 15.212 15.212 h 41.683 c 1.104 0 2 -0.896 2 -2 s -0.896 -2 -2 -2 H 15.212 C 9.03 52.053 4 47.023 4 40.841 c 0 -3.927 2.012 -7.501 5.382 -9.562 c 0.646 -0.395 1.014 -1.122 0.95 -1.876 c -0.059 -0.696 -0.088 -1.323 -0.088 -1.917 c 0 -12.31 10.014 -22.324 22.324 -22.324 c 7.218 0 14.028 3.524 18.216 9.428 c 0.632 0.89 1.861 1.109 2.762 0.492 c 2.509 -1.721 5.443 -2.63 8.487 -2.63 c 8.29 0 15.034 6.744 15.034 15.034 c 0 0.141 -0.011 0.28 -0.021 0.419 l -0.021 0.333 c -0.043 0.892 0.511 1.705 1.356 1.991 C 82.938 31.773 86 36.037 86 40.841 c 0 2.737 -0.997 5.373 -2.808 7.422 c -0.731 0.828 -0.653 2.092 0.175 2.823 s 2.092 0.653 2.823 -0.175 C 88.647 48.13 90 44.554 90 40.841 C 90 34.825 86.464 29.433 81.061 26.991 z" style="stroke: none; stroke-width: 1; stroke-dasharray: none; stroke-linecap: butt; stroke-linejoin: miter; stroke-miterlimit: 10; fill: url(#SVGID_11); fill-rule: nonzero; opacity: 1;" transform=" matrix(1 0 0 1 0 0) " stroke-linecap="round" />
</g>
</svg> -->



<svg xmlns="http://www.w3.org/2000/svg" xmlns:xlink="http://www.w3.org/1999/xlink" version="1.1" width="256" height="256" viewBox="0 0 256 256" xml:space="preserve">

<defs>
</defs>
<g style="stroke: none; stroke-width: 0; stroke-dasharray: none; stroke-linecap: butt; stroke-linejoin: miter; stroke-miterlimit: 10; fill: none; fill-rule: nonzero; opacity: 1;" transform="translate(1.4065934065934016 1.4065934065934016) scale(2.81 2.81)" >
	<linearGradient id="SVGID_5" gradientUnits="userSpaceOnUse" x1="45.0003" y1="78.7946" x2="45.0003" y2="12.0418">
<stop offset="0%" style="stop-color:rgb(0,94,208);stop-opacity: 1"/>
<stop offset="100%" style="stop-color:rgb(48,186,255);stop-opacity: 1"/>
</linearGradient>
<path d="M 31.502 21.621 c -12.891 7.442 -17.324 23.985 -9.881 36.877 c 4.995 8.651 14.087 13.493 23.425 13.493 c 4.576 0 9.212 -1.164 13.452 -3.611 c 12.892 -7.443 17.324 -23.986 9.882 -36.878 C 60.937 18.611 44.393 14.178 31.502 21.621 z M 56.498 64.915 c -10.98 6.341 -25.073 2.564 -31.413 -8.417 c -6.34 -10.981 -2.564 -25.073 8.417 -31.413 c 3.613 -2.085 7.561 -3.076 11.459 -3.076 c 7.954 0 15.7 4.125 19.954 11.493 C 71.255 44.483 67.479 58.575 56.498 64.915 z" style="stroke: none; stroke-width: 1; stroke-dasharray: none; stroke-linecap: butt; stroke-linejoin: miter; stroke-miterlimit: 10; fill: url(#SVGID_5); fill-rule: nonzero; opacity: 1;" transform=" matrix(1 0 0 1 0 0) " stroke-linecap="round" />
	<linearGradient id="SVGID_6" gradientUnits="userSpaceOnUse" x1="45" y1="78.7946" x2="45" y2="12.0418">
<stop offset="0%" style="stop-color:rgb(0,94,208);stop-opacity: 1"/>
<stop offset="100%" style="stop-color:rgb(48,186,255);stop-opacity: 1"/>
</linearGradient>
<path d="M 81.253 31.093 c -1.78 0 -3.415 -1.024 -4.268 -2.673 c -0.25 -0.482 -0.511 -0.961 -0.785 -1.435 c -0.274 -0.475 -0.558 -0.94 -0.849 -1.395 c -1.002 -1.564 -1.071 -3.492 -0.181 -5.034 c 2.41 -4.177 0.974 -9.537 -3.202 -11.948 l -8.938 -5.16 c -2.022 -1.168 -4.379 -1.479 -6.637 -0.874 c -2.247 0.603 -4.127 2.04 -5.296 4.05 c -0.006 0.01 -0.012 0.019 -0.018 0.029 c -0.89 1.542 -2.537 2.454 -4.339 2.358 c -1.161 -0.056 -2.337 -0.057 -3.496 0 c -1.78 0.094 -3.438 -0.818 -4.329 -2.361 c -1.168 -2.023 -3.054 -3.471 -5.311 -4.076 c -2.258 -0.604 -4.614 -0.294 -6.637 0.874 l -8.937 5.16 c -2.023 1.168 -3.471 3.055 -4.076 5.312 c -0.604 2.257 -0.294 4.615 0.875 6.639 c 0.89 1.542 0.844 3.429 -0.121 4.928 c -0.626 0.973 -1.214 1.992 -1.748 3.027 c -0.818 1.591 -2.432 2.579 -4.215 2.579 C 3.924 31.093 0 35.017 0 39.84 v 10.32 c 0 4.822 3.924 8.746 8.748 8.747 c 0 0 0.001 0 0.001 0 c 1.778 0 3.413 1.024 4.266 2.673 c 0.249 0.481 0.51 0.96 0.784 1.434 c 0.274 0.475 0.557 0.939 0.85 1.396 c 1.001 1.563 1.071 3.491 0.181 5.032 c -2.412 4.177 -0.976 9.537 3.201 11.949 l 8.938 5.16 c 4.176 2.411 9.537 0.975 11.948 -3.202 c 0.004 -0.007 0.008 -0.014 0.012 -0.021 c 0.893 -1.531 2.547 -2.428 4.329 -2.34 c 1.153 0.056 2.329 0.056 3.496 0.001 c 1.79 -0.088 3.428 0.812 4.318 2.344 c 0.004 0.005 0.007 0.011 0.01 0.017 c 1.619 2.803 4.565 4.372 7.591 4.371 c 1.482 0 2.984 -0.377 4.358 -1.169 l 8.938 -5.16 c 4.17 -2.408 5.607 -7.755 3.213 -11.929 c -0.005 -0.008 -0.009 -0.015 -0.013 -0.022 c -0.89 -1.541 -0.844 -3.43 0.121 -4.928 c 0.631 -0.979 1.219 -1.998 1.748 -3.027 c 0.817 -1.591 2.432 -2.579 4.215 -2.579 c 4.823 0 8.747 -3.924 8.747 -8.746 V 39.84 C 90 35.017 86.076 31.093 81.253 31.093 z M 86 50.16 c 0 2.617 -2.13 4.746 -4.75 4.746 c -3.287 0 -6.264 1.82 -7.77 4.751 c -0.471 0.914 -0.993 1.819 -1.554 2.69 c -1.775 2.757 -1.864 6.23 -0.233 9.073 c 0.004 0.007 0.008 0.014 0.012 0.021 c 1.309 2.267 0.53 5.176 -1.736 6.484 l -8.938 5.16 c -2.262 1.306 -5.164 0.533 -6.476 -1.722 c -0.003 -0.006 -0.007 -0.012 -0.01 -0.018 c -1.642 -2.844 -4.703 -4.511 -7.984 -4.354 c -1.038 0.052 -2.083 0.05 -3.109 -0.001 c -3.291 -0.147 -6.355 1.509 -7.999 4.354 c -0.003 0.007 -0.007 0.014 -0.011 0.021 c -1.314 2.253 -4.215 3.024 -6.475 1.72 l -8.937 -5.16 c -2.267 -1.309 -3.046 -4.218 -1.737 -6.484 c 1.641 -2.841 1.534 -6.362 -0.277 -9.19 c -0.259 -0.404 -0.511 -0.818 -0.754 -1.238 c -0.243 -0.421 -0.475 -0.845 -0.695 -1.271 c -1.543 -2.983 -4.54 -4.836 -7.821 -4.836 C 6.129 54.906 4 52.777 4 50.16 V 39.84 c 0 -2.618 2.129 -4.747 4.75 -4.747 c 3.286 0 6.263 -1.82 7.769 -4.75 c 0.474 -0.921 0.997 -1.827 1.554 -2.692 c 1.78 -2.764 1.864 -6.249 0.221 -9.094 c -0.634 -1.098 -0.802 -2.377 -0.474 -3.602 c 0.328 -1.225 1.114 -2.249 2.212 -2.883 l 8.937 -5.16 c 1.098 -0.634 2.375 -0.802 3.602 -0.474 c 1.225 0.329 2.249 1.115 2.884 2.213 c 1.643 2.845 4.713 4.512 7.986 4.354 c 1.03 -0.05 2.075 -0.05 3.107 0 c 3.282 0.161 6.337 -1.498 7.983 -4.328 c 0.006 -0.009 0.012 -0.019 0.018 -0.028 c 0.634 -1.098 1.657 -1.884 2.882 -2.212 c 1.226 -0.328 2.503 -0.16 3.602 0.474 l 8.938 5.16 c 2.267 1.309 3.046 4.218 1.738 6.484 c -1.642 2.841 -1.536 6.363 0.277 9.193 c 0.26 0.404 0.51 0.816 0.753 1.237 c 0.243 0.42 0.475 0.844 0.695 1.27 c 1.542 2.982 4.538 4.835 7.82 4.835 c 2.617 0 4.747 2.129 4.747 4.747 V 50.16 z" style="stroke: none; stroke-width: 1; stroke-dasharray: none; stroke-linecap: butt; stroke-linejoin: miter; stroke-miterlimit: 10; fill: url(#SVGID_6); fill-rule: nonzero; opacity: 1;" transform=" matrix(1 0 0 1 0 0) " stroke-linecap="round" />
	<linearGradient id="SVGID_7" gradientUnits="userSpaceOnUse" x1="33.4856" y1="78.7946" x2="33.4856" y2="12.0418">
<stop offset="0%" style="stop-color:rgb(0,94,208);stop-opacity: 1"/>
<stop offset="100%" style="stop-color:rgb(48,186,255);stop-opacity: 1"/>
</linearGradient>
<path d="M 34.479 35.182 h -1.985 c -2.962 0 -5.372 2.41 -5.372 5.372 v 12.265 c 0 1.104 0.896 2 2 2 s 2 -0.896 2 -2 V 47 h 4.728 v 5.818 c 0 1.104 0.896 2 2 2 s 2 -0.896 2 -2 V 40.553 C 39.85 37.591 37.44 35.182 34.479 35.182 z M 31.122 43 v -2.447 c 0 -0.756 0.615 -1.372 1.372 -1.372 h 1.985 c 0.743 0 1.371 0.628 1.371 1.372 V 43 H 31.122 z" style="stroke: none; stroke-width: 1; stroke-dasharray: none; stroke-linecap: butt; stroke-linejoin: miter; stroke-miterlimit: 10; fill: url(#SVGID_7); fill-rule: nonzero; opacity: 1;" transform=" matrix(1 0 0 1 0 0) " stroke-linecap="round" />
	<linearGradient id="SVGID_8" gradientUnits="userSpaceOnUse" x1="49.6252" y1="78.7946" x2="49.6252" y2="12.0418">
<stop offset="0%" style="stop-color:rgb(0,94,208);stop-opacity: 1"/>
<stop offset="100%" style="stop-color:rgb(48,186,255);stop-opacity: 1"/>
</linearGradient>
<path d="M 50.821 35.182 h -5.382 c -1.104 0 -2 0.896 -2 2 V 45 v 7.818 c 0 1.104 0.896 2 2 2 c 1.105 0 2 -0.896 2 -2 V 47 h 3.382 c 2.752 0 4.99 -2.238 4.99 -4.989 v -1.839 C 55.812 37.42 53.573 35.182 50.821 35.182 z M 51.812 42.011 c 0 0.545 -0.444 0.989 -0.99 0.989 h -3.383 v -3.818 h 3.383 c 0.546 0 0.99 0.444 0.99 0.99 V 42.011 z" style="stroke: none; stroke-width: 1; stroke-dasharray: none; stroke-linecap: butt; stroke-linejoin: miter; stroke-miterlimit: 10; fill: url(#SVGID_8); fill-rule: nonzero; opacity: 1;" transform=" matrix(1 0 0 1 0 0) " stroke-linecap="round" />
	<linearGradient id="SVGID_9" gradientUnits="userSpaceOnUse" x1="60.8779" y1="78.7946" x2="60.8779" y2="12.0418">
<stop offset="0%" style="stop-color:rgb(0,94,208);stop-opacity: 1"/>
<stop offset="100%" style="stop-color:rgb(48,186,255);stop-opacity: 1"/>
</linearGradient>
<path d="M 60.878 35.182 c -1.104 0 -2 0.896 -2 2 v 15.637 c 0 1.104 0.896 2 2 2 s 2 -0.896 2 -2 V 37.182 C 62.878 36.077 61.982 35.182 60.878 35.182 z" style="stroke: none; stroke-width: 1; stroke-dasharray: none; stroke-linecap: butt; stroke-linejoin: miter; stroke-miterlimit: 10; fill: url(#SVGID_9); fill-rule: nonzero; opacity: 1;" transform=" matrix(1 0 0 1 0 0) " stroke-linecap="round" />
</g>
</svg>